<svg width="24" height="24" viewBox="0 0 24 24" fill="none" xmlns="http://www.w3.org/2000/svg">
<path fill-rule="evenodd" clip-rule="evenodd" d="M12.7073 15.7083C12.5198 15.8958 12.2655 16.0011 12.0003 16.0011C11.7352 16.0011 11.4809 15.8958 11.2933 15.7083L5.63634 10.0513C5.54083 9.95907 5.46465 9.84873 5.41224 9.72672C5.35983 9.60472 5.33225 9.4735 5.33109 9.34072C5.32994 9.20794 5.35524 9.07626 5.40552 8.95337C5.4558 8.83047 5.53006 8.71882 5.62395 8.62492C5.71784 8.53103 5.82949 8.45678 5.95239 8.4065C6.07529 8.35622 6.20696 8.33092 6.33974 8.33207C6.47252 8.33322 6.60374 8.36081 6.72575 8.41322C6.84775 8.46563 6.9581 8.54181 7.05034 8.63732L12.0003 13.5873L16.9503 8.63732C17.1389 8.45516 17.3915 8.35437 17.6537 8.35665C17.9159 8.35892 18.1668 8.46409 18.3522 8.6495C18.5376 8.83491 18.6427 9.08572 18.645 9.34792C18.6473 9.61011 18.5465 9.86272 18.3643 10.0513L12.7073 15.7083Z" fill="#2D3657"/>
</svg>
