<svg width="24" height="24" viewBox="0 0 24 24" fill="none" xmlns="http://www.w3.org/2000/svg">
<path d="M11.9997 19C11.1577 19 10.3147 18.822 9.49573 18.505" stroke="#292B33" stroke-width="1.5" stroke-linecap="round" stroke-linejoin="round"/>
<path d="M20.882 12.4686C18.99 15.9676 15.495 19.0006 12 19.0006" stroke="#292B33" stroke-width="1.5" stroke-linecap="round" stroke-linejoin="round"/>
<path d="M19.0792 8.92061C19.7702 9.72961 20.3842 10.6116 20.8822 11.5326C21.0392 11.8236 21.0392 12.1766 20.8822 12.4676" stroke="#292B33" stroke-width="1.5" stroke-linecap="round" stroke-linejoin="round"/>
<path d="M5 19.0006L19 5.00061" stroke="#292B33" stroke-width="1.5" stroke-linecap="round" stroke-linejoin="round"/>
<path d="M9.77296 14.2281C8.54296 12.9981 8.54296 11.0031 9.77296 9.7731C11.003 8.5431 12.998 8.5431 14.228 9.7731" stroke="#292B33" stroke-width="1.5" stroke-linecap="round" stroke-linejoin="round"/>
<path d="M12 5.00061C8.50499 5.00061 5.00999 8.03361 3.11799 11.5336C2.96099 11.8246 2.96099 12.1776 3.11799 12.4686C4.06399 14.2176 5.40999 15.8496 6.95599 17.0456" stroke="#292B33" stroke-width="1.5" stroke-linecap="round" stroke-linejoin="round"/>
<path d="M17.044 6.95661C15.497 5.75961 13.748 5.00061 12 5.00061" stroke="#292B33" stroke-width="1.5" stroke-linecap="round" stroke-linejoin="round"/>
</svg>
