<svg width="37" height="36" viewBox="0 0 37 36" fill="none" xmlns="http://www.w3.org/2000/svg">
<g clip-path="url(#clip0_1508_521)">
<path d="M18.5274 36C28.4837 36 36.5548 27.9411 36.5548 18C36.5548 8.05887 28.4837 0 18.5274 0C8.57115 0 0.5 8.05887 0.5 18C0.5 27.9411 8.57115 36 18.5274 36Z" fill="#E0E0E0"/>
<path d="M18.5274 35.4529C28.3323 35.4529 36.2808 27.5165 36.2808 17.7264C36.2808 7.9364 28.3323 0 18.5274 0C8.72242 0 0.773926 7.9364 0.773926 17.7264C0.773926 27.5165 8.72242 35.4529 18.5274 35.4529Z" fill="white"/>
<mask id="mask0_1508_521" style="mask-type:luminance" maskUnits="userSpaceOnUse" x="6" y="5" width="25" height="25">
<path d="M30.0343 15.6474H18.8014V20.2979H25.2671C24.6644 23.2523 22.1438 24.9483 18.8014 24.9483C14.8562 24.9483 11.6781 21.7751 11.6781 17.8359C11.6781 13.8966 14.8562 10.7234 18.8014 10.7234C20.5 10.7234 22.0342 11.3252 23.2397 12.31L26.7466 8.8085C24.6096 6.94831 21.8699 5.79938 18.8014 5.79938C12.1164 5.79938 6.74658 11.1611 6.74658 17.8359C6.74658 24.5106 12.1164 29.8723 18.8014 29.8723C24.8288 29.8723 30.3082 25.4954 30.3082 17.8359C30.3082 17.1246 30.1986 16.3586 30.0343 15.6474Z" fill="white"/>
</mask>
<g mask="url(#mask0_1508_521)">
<path d="M5.65063 24.9483V10.7234L14.9657 17.8358L5.65063 24.9483Z" fill="#FBBC05"/>
</g>
<mask id="mask1_1508_521" style="mask-type:luminance" maskUnits="userSpaceOnUse" x="6" y="5" width="25" height="25">
<path d="M30.0343 15.6474H18.8014V20.2979H25.2671C24.6644 23.2523 22.1438 24.9483 18.8014 24.9483C14.8562 24.9483 11.6781 21.7751 11.6781 17.8359C11.6781 13.8966 14.8562 10.7234 18.8014 10.7234C20.5 10.7234 22.0342 11.3252 23.2397 12.31L26.7466 8.8085C24.6096 6.94831 21.8699 5.79938 18.8014 5.79938C12.1164 5.79938 6.74658 11.1611 6.74658 17.8359C6.74658 24.5106 12.1164 29.8723 18.8014 29.8723C24.8288 29.8723 30.3082 25.4954 30.3082 17.8359C30.3082 17.1246 30.1986 16.3586 30.0343 15.6474Z" fill="white"/>
</mask>
<g mask="url(#mask1_1508_521)">
<path d="M5.65063 10.7234L14.9657 17.8358L18.8013 14.4985L31.952 12.3647V4.70514H5.65063V10.7234Z" fill="#EA4335"/>
</g>
<mask id="mask2_1508_521" style="mask-type:luminance" maskUnits="userSpaceOnUse" x="6" y="5" width="25" height="25">
<path d="M30.0343 15.6474H18.8014V20.2979H25.2671C24.6644 23.2523 22.1438 24.9483 18.8014 24.9483C14.8562 24.9483 11.6781 21.7751 11.6781 17.8359C11.6781 13.8966 14.8562 10.7234 18.8014 10.7234C20.5 10.7234 22.0342 11.3252 23.2397 12.31L26.7466 8.8085C24.6096 6.94831 21.8699 5.79938 18.8014 5.79938C12.1164 5.79938 6.74658 11.1611 6.74658 17.8359C6.74658 24.5106 12.1164 29.8723 18.8014 29.8723C24.8288 29.8723 30.3082 25.4954 30.3082 17.8359C30.3082 17.1246 30.1986 16.3586 30.0343 15.6474Z" fill="white"/>
</mask>
<g mask="url(#mask2_1508_521)">
<path d="M5.65063 24.9483L22.089 12.3647L26.4178 12.9118L31.952 4.70514V30.9665H5.65063V24.9483Z" fill="#34A853"/>
</g>
<mask id="mask3_1508_521" style="mask-type:luminance" maskUnits="userSpaceOnUse" x="6" y="5" width="25" height="25">
<path d="M30.0343 15.6474H18.8014V20.2979H25.2671C24.6644 23.2523 22.1438 24.9483 18.8014 24.9483C14.8562 24.9483 11.6781 21.7751 11.6781 17.8359C11.6781 13.8966 14.8562 10.7234 18.8014 10.7234C20.5 10.7234 22.0342 11.3252 23.2397 12.31L26.7466 8.8085C24.6096 6.94831 21.8699 5.79938 18.8014 5.79938C12.1164 5.79938 6.74658 11.1611 6.74658 17.8359C6.74658 24.5106 12.1164 29.8723 18.8014 29.8723C24.8288 29.8723 30.3082 25.4954 30.3082 17.8359C30.3082 17.1246 30.1986 16.3586 30.0343 15.6474Z" fill="white"/>
</mask>
<g mask="url(#mask3_1508_521)">
<path d="M31.952 30.9665L14.9657 17.8359L12.7739 16.1945L31.952 10.7234V30.9665Z" fill="#4285F4"/>
</g>
</g>
<defs>
<clipPath id="clip0_1508_521">
<rect width="36" height="36" fill="white" transform="translate(0.5)"/>
</clipPath>
</defs>
</svg>