<svg width="130" height="163" viewBox="0 0 130 163" fill="none" xmlns="http://www.w3.org/2000/svg">
<mask id="mask0_25_48" style="mask-type:alpha" maskUnits="userSpaceOnUse" x="0" y="0" width="130" height="163">
<path d="M41.5157 37.056C41.3734 25.5923 31.9648 16.4144 20.501 16.5567C9.03724 16.699 -0.140648 26.1075 0.00163217 37.5713L1.30392 142.499C1.4462 153.963 10.8548 163.141 22.3186 162.998C33.7823 162.856 42.9602 153.448 42.8179 141.984L41.5157 37.056Z" fill="#D9D9D9"/>
<path d="M88.8838 71.2892C83.9132 62.4152 72.6899 59.2509 63.816 64.2216C54.942 69.1922 51.7777 80.4154 56.7483 89.2894L91.0127 150.461C95.9833 159.335 107.207 162.499 116.08 157.528C124.954 152.558 128.119 141.335 123.148 132.461L88.8838 71.2892Z" fill="#D9D9D9"/>
<path d="M1.4504 42.5055C1.91227 33.4733 6.12541 24.8363 13.557 17.6866C20.9886 10.537 31.305 5.19593 43.2014 2.33875C55.0979 -0.518423 68.0402 -0.763342 80.3917 1.63497C92.7431 4.03327 103.949 8.96709 112.592 15.8125C121.236 22.6579 126.928 31.1075 128.95 40.0927C130.972 49.0779 129.232 58.1952 123.951 66.2916C118.67 74.3881 110.084 81.1 99.2802 85.5787C88.4761 90.0574 75.9387 92.1016 63.2534 91.4529L64.7019 63.1256C69.5186 63.3719 74.2791 62.5957 78.3815 60.8951C82.4839 59.1946 85.7439 56.646 87.7492 53.5717C89.7545 50.4974 90.415 47.0355 89.6473 43.6238C88.8797 40.212 86.7182 37.0036 83.4362 34.4044C80.1543 31.8051 75.8994 29.9317 71.2094 29.0211C66.5195 28.1104 61.6052 28.2034 57.088 29.2883C52.5708 30.3732 48.6536 32.4012 45.8318 35.116C43.0099 37.8308 41.4102 41.1103 41.2348 44.5399L1.4504 42.5055Z" fill="#D9D9D9"/>
<path d="M73.6965 46.7883C73.6965 51.4458 69.9209 55.2214 65.2634 55.2214C60.6058 55.2214 56.8302 51.4458 56.8302 46.7883C56.8302 42.1307 60.6058 38.3551 65.2634 38.3551C69.9209 38.3551 73.6965 42.1307 73.6965 46.7883Z" fill="#D9D9D9"/>
</mask>
<g mask="url(#mask0_25_48)">
<path d="M59.3715 21.759C36.0648 53.4618 -29.3929 91.0076 -52.7768 73.8166C-76.1608 56.6256 -47.1568 24.9739 -23.8501 -6.72893C-0.543428 -38.4317 8.24026 -58.1805 31.6242 -40.9895C55.0081 -23.7985 82.6782 -9.94385 59.3715 21.759Z" fill="#FAC42E"/>
<path d="M139.42 -2.51452C158.508 31.8937 165.32 107.047 139.941 121.126C114.561 135.205 97.8969 95.6406 78.809 61.2324C59.7212 26.8242 45.4381 10.6021 70.8175 -3.4771C96.197 -17.5563 120.333 -36.9227 139.42 -2.51452Z" fill="url(#paint0_linear_25_48)"/>
<path d="M121.708 66.6513C106.253 87.6742 51.2386 104.038 24.6863 84.5177C-1.86599 64.9975 19.1257 45.3013 34.581 24.2784C50.0362 3.25551 54.1024 -11.1331 80.6547 8.38709C107.207 27.9073 137.164 45.6284 121.708 66.6513Z" fill="#FAA813"/>
<path d="M139.604 82.6931C164.811 128.132 182.357 222.635 156.978 236.714C131.598 250.793 108.296 199.263 83.0891 153.824C57.882 108.386 40.3153 86.2443 65.6947 72.1651C91.0742 58.0859 114.397 37.2542 139.604 82.6931Z" fill="url(#paint1_linear_25_48)"/>
<ellipse cx="10.3793" cy="108.334" rx="33.7327" ry="60.3297" fill="#DF4B0C"/>
<ellipse cx="31.7867" cy="143.364" rx="47.3556" ry="60.3297" fill="#F16C14"/>
<ellipse cx="42.166" cy="158.933" rx="46.0582" ry="60.3297" fill="url(#paint2_linear_25_48)"/>
</g>
<defs>
<linearGradient id="paint0_linear_25_48" x1="85.9438" y1="-12.1317" x2="155.179" y2="112.673" gradientUnits="userSpaceOnUse">
<stop stop-color="#F8A82A"/>
<stop offset="1" stop-color="#F69128"/>
</linearGradient>
<linearGradient id="paint1_linear_25_48" x1="124.863" y1="131.566" x2="143.148" y2="226.272" gradientUnits="userSpaceOnUse">
<stop stop-color="#D53C11"/>
<stop offset="1" stop-color="#F69128"/>
</linearGradient>
<linearGradient id="paint2_linear_25_48" x1="42.166" y1="98.6034" x2="42.166" y2="219.263" gradientUnits="userSpaceOnUse">
<stop stop-color="#F6A265"/>
<stop offset="0.891266" stop-color="#F44B15" stop-opacity="0.97"/>
</linearGradient>
</defs>
</svg>
