<svg width="120" height="109" viewBox="0 0 120 109" fill="none" xmlns="http://www.w3.org/2000/svg">
<path fill-rule="evenodd" clip-rule="evenodd" d="M64.018 5.00024C72.8546 5.00024 80.018 12.1637 80.018 21.0002V50.0278C80.018 58.8643 72.8546 66.0278 64.018 66.0278H16.0509C15.7804 66.0278 15.5161 66.1056 15.2847 66.2458C15.1001 66.3577 14.9147 66.4608 14.7291 66.5536C12.3507 67.7428 5.17934 76.0626 1.78785 80.0926C1.1801 80.8148 -0.00891876 80.3766 5.34058e-05 79.4328L0.242226 53.9474C0.250801 53.0448 0.164124 52.1445 0.0964432 51.2443C0.0662537 50.8428 0.0508881 50.4371 0.0508881 50.0278V21.0002C0.0508881 12.1637 7.21435 5.00024 16.0509 5.00024H64.018Z" fill="url(#paint0_linear_13_21)"/>
<g filter="url(#filter0_dii_13_21)">
<rect x="18.0014" y="5" width="62" height="40" rx="16" fill="url(#paint1_radial_13_21)"/>
</g>
<path fill-rule="evenodd" clip-rule="evenodd" d="M55.9852 37.5969C47.1486 37.5969 39.9852 44.7604 39.9852 53.5969V79.216C39.9852 88.0526 47.1486 95.216 55.9852 95.216H103.952C104.223 95.216 104.488 95.2903 104.723 95.4246C104.906 95.5292 105.09 95.6256 105.274 95.7125C107.657 96.8375 114.852 104.721 118.235 108.518C118.854 109.212 120.012 108.767 120.003 107.837L119.755 83.2063C119.746 82.2859 119.835 81.3678 119.905 80.4499C119.936 80.0427 119.952 79.6312 119.952 79.216V53.5969C119.952 44.7604 112.789 37.5969 103.952 37.5969H55.9852Z" fill="url(#paint2_linear_13_21)"/>
<g filter="url(#filter1_di_13_21)">
<rect x="40.0014" y="38" width="63" height="41" rx="18" fill="url(#paint3_radial_13_21)"/>
</g>
<path fill-rule="evenodd" clip-rule="evenodd" d="M21.9644 18.6786C19.7238 18.6786 17.9187 20.5091 17.9505 22.7495C18.0624 30.6208 18.2038 47.2998 17.4248 48.9242C17.2333 48.9621 17.1739 49.002 17.2611 49.0437C17.3198 49.0718 17.3742 49.0297 17.4248 48.9242C19.7577 48.4625 41.7012 48.2843 57.3871 48.4079C59.6155 48.4254 61.4305 46.627 61.4305 44.3985V22.6786C61.4305 20.4694 59.6396 18.6786 57.4305 18.6786H21.9644ZM25.0487 37.4563C26.9932 37.4563 28.5695 35.88 28.5695 33.9355C28.5695 31.991 26.9932 30.4146 25.0487 30.4146C23.1042 30.4146 21.5279 31.991 21.5279 33.9355C21.5279 35.88 23.1042 37.4563 25.0487 37.4563ZM42.6528 33.9354C42.6528 35.8799 41.0765 37.4563 39.132 37.4563C37.1875 37.4563 35.6112 35.8799 35.6112 33.9354C35.6112 31.9909 37.1875 30.4146 39.132 30.4146C41.0765 30.4146 42.6528 31.9909 42.6528 33.9354ZM53.2153 37.4563C55.1598 37.4563 56.7361 35.8799 56.7361 33.9354C56.7361 31.9909 55.1598 30.4146 53.2153 30.4146C51.2708 30.4146 49.6944 31.9909 49.6944 33.9354C49.6944 35.8799 51.2708 37.4563 53.2153 37.4563Z" fill="white"/>
<path d="M104.58 48.9178C104.547 46.7304 102.766 44.9836 100.578 44.9836H59.768C57.5588 44.9836 55.768 46.7744 55.768 48.9836V74.2637C55.768 76.4921 57.585 78.2904 59.8135 78.2787C78.7008 78.1801 105.429 78.8361 105.22 78.9801C105.042 79.102 104.711 57.8933 104.58 48.9178Z" fill="white"/>
<defs>
<filter id="filter0_dii_13_21" x="-1.9986" y="-21.9" width="94.6" height="79.5" filterUnits="userSpaceOnUse" color-interpolation-filters="sRGB">
<feFlood flood-opacity="0" result="BackgroundImageFix"/>
<feColorMatrix in="SourceAlpha" type="matrix" values="0 0 0 0 0 0 0 0 0 0 0 0 0 0 0 0 0 0 127 0" result="hardAlpha"/>
<feOffset dx="4" dy="4"/>
<feGaussianBlur stdDeviation="4.3"/>
<feComposite in2="hardAlpha" operator="out"/>
<feColorMatrix type="matrix" values="0 0 0 0 0 0 0 0 0 0 0 0 0 0 0 0 0 0 0.25 0"/>
<feBlend mode="normal" in2="BackgroundImageFix" result="effect1_dropShadow_13_21"/>
<feBlend mode="normal" in="SourceGraphic" in2="effect1_dropShadow_13_21" result="shape"/>
<feColorMatrix in="SourceAlpha" type="matrix" values="0 0 0 0 0 0 0 0 0 0 0 0 0 0 0 0 0 0 127 0" result="hardAlpha"/>
<feMorphology radius="32" operator="dilate" in="SourceAlpha" result="effect2_innerShadow_13_21"/>
<feOffset dx="-20" dy="-44"/>
<feGaussianBlur stdDeviation="29.45"/>
<feComposite in2="hardAlpha" operator="arithmetic" k2="-1" k3="1"/>
<feColorMatrix type="matrix" values="0 0 0 0 0.00392157 0 0 0 0 0.745098 0 0 0 0 0.996078 0 0 0 0.32 0"/>
<feBlend mode="normal" in2="shape" result="effect2_innerShadow_13_21"/>
<feColorMatrix in="SourceAlpha" type="matrix" values="0 0 0 0 0 0 0 0 0 0 0 0 0 0 0 0 0 0 127 0" result="hardAlpha"/>
<feOffset dx="4" dy="-12"/>
<feGaussianBlur stdDeviation="4.4"/>
<feComposite in2="hardAlpha" operator="arithmetic" k2="-1" k3="1"/>
<feColorMatrix type="matrix" values="0 0 0 0 0 0 0 0 0 0 0 0 0 0 0 0 0 0 0.25 0"/>
<feBlend mode="normal" in2="effect2_innerShadow_13_21" result="effect3_innerShadow_13_21"/>
</filter>
<filter id="filter1_di_13_21" x="20.0014" y="11.1" width="95.6" height="80.5" filterUnits="userSpaceOnUse" color-interpolation-filters="sRGB">
<feFlood flood-opacity="0" result="BackgroundImageFix"/>
<feColorMatrix in="SourceAlpha" type="matrix" values="0 0 0 0 0 0 0 0 0 0 0 0 0 0 0 0 0 0 127 0" result="hardAlpha"/>
<feOffset dx="4" dy="4"/>
<feGaussianBlur stdDeviation="4.3"/>
<feComposite in2="hardAlpha" operator="out"/>
<feColorMatrix type="matrix" values="0 0 0 0 0 0 0 0 0 0 0 0 0 0 0 0 0 0 0.25 0"/>
<feBlend mode="normal" in2="BackgroundImageFix" result="effect1_dropShadow_13_21"/>
<feBlend mode="normal" in="SourceGraphic" in2="effect1_dropShadow_13_21" result="shape"/>
<feColorMatrix in="SourceAlpha" type="matrix" values="0 0 0 0 0 0 0 0 0 0 0 0 0 0 0 0 0 0 127 0" result="hardAlpha"/>
<feMorphology radius="32" operator="dilate" in="SourceAlpha" result="effect2_innerShadow_13_21"/>
<feOffset dx="-20" dy="-44"/>
<feGaussianBlur stdDeviation="29.45"/>
<feComposite in2="hardAlpha" operator="arithmetic" k2="-1" k3="1"/>
<feColorMatrix type="matrix" values="0 0 0 0 0.482353 0 0 0 0 0.886275 0 0 0 0 0.298039 0 0 0 1 0"/>
<feBlend mode="normal" in2="shape" result="effect2_innerShadow_13_21"/>
</filter>
<linearGradient id="paint0_linear_13_21" x1="39.6976" y1="46.9604" x2="11.4363" y2="84.7327" gradientUnits="userSpaceOnUse">
<stop stop-color="#01BEFE"/>
<stop offset="1" stop-color="#017298"/>
</linearGradient>
<radialGradient id="paint1_radial_13_21" cx="0" cy="0" r="1" gradientUnits="userSpaceOnUse" gradientTransform="translate(54.1681 24.4872) rotate(152.919) scale(38.2991 30.4555)">
<stop offset="0.269299" stop-color="#01B2F8"/>
<stop offset="1" stop-color="#016992"/>
</radialGradient>
<linearGradient id="paint2_linear_13_21" x1="79.9724" y1="65.4564" x2="117.779" y2="104.385" gradientUnits="userSpaceOnUse">
<stop stop-color="#7BE14B"/>
<stop offset="1" stop-color="#0FEB9A"/>
</linearGradient>
<radialGradient id="paint3_radial_13_21" cx="0" cy="0" r="1" gradientUnits="userSpaceOnUse" gradientTransform="translate(117.701 32.7436) rotate(151.095) scale(81.5606 40.0479)">
<stop offset="0.684818" stop-color="#559538"/>
<stop offset="1" stop-color="#29E988"/>
</radialGradient>
</defs>
</svg>