<svg width="119" height="161" viewBox="0 0 119 161" fill="none" xmlns="http://www.w3.org/2000/svg">
<path d="M60.0762 19C81.1052 19 98.1531 36.0472 98.1533 57.0762C98.1533 76.0707 84.2446 91.8145 66.0564 94.6836C65.6255 94.7516 65.2489 95.0196 65.0543 95.4101L61.3553 102.834C60.8684 103.811 59.4743 103.811 58.9882 102.833L55.3128 95.4444C55.1172 95.0511 54.7372 94.782 54.3029 94.716C36.0138 91.9338 22 76.1424 22 57.0762C22.0003 36.0474 39.0474 19.0003 60.0762 19Z" fill="#FAA813"/>
<circle cx="44.7402" cy="47.5575" r="4.75958" fill="white"/>
<circle cx="75.9419" cy="47.5575" r="4.75958" fill="white"/>
<path d="M44.1199 72.1575C44.7836 70.4152 47.1189 69.8433 48.7206 70.7976C51.2624 72.3121 55.2392 73.9996 60.3411 73.9996C65.5194 73.9996 70.2838 72.2611 73.4763 70.7297C75.2446 69.8814 77.5285 71.1416 77.5285 73.1028C77.5285 73.6815 77.3234 74.2397 76.8925 74.626C75.273 76.0783 70.5028 79.5525 61.9276 79.5525C54.0894 79.5525 47.9099 76.6499 45.0878 75.0418C44.0773 74.466 43.7059 73.2443 44.1199 72.1575Z" fill="white"/>
<path d="M0 125.303C0 119.925 4.35912 115.566 9.73636 115.566H39.6667V135.039H9.73637C4.35913 135.039 0 130.68 0 125.303Z" fill="#FF1E0E"/>
<rect x="39.6667" y="115.566" width="39.6667" height="19.4727" fill="#FAA813"/>
<path d="M79.3333 115.566H109.264C114.641 115.566 119 119.925 119 125.303C119 130.68 114.641 135.039 109.264 135.039H79.3333V115.566Z" fill="#73E140"/>
</svg>