<svg width="38" height="31" viewBox="0 0 38 31" fill="none" xmlns="http://www.w3.org/2000/svg">
<path d="M32.0379 0.928711C35.2577 0.928711 37.874 3.51543 37.926 6.72615L37.9268 6.82357V24.2184C37.9268 27.4415 35.3427 30.0605 32.1353 30.1125L32.0379 30.1133H6.35863C3.13883 30.1133 0.522553 27.5266 0.470566 24.3158L0.469727 24.2184V6.82357C0.469727 3.60051 3.0538 0.981537 6.26121 0.929509L6.35863 0.928711H32.0379ZM12.9715 6.24379C10.0124 6.24379 7.61361 8.64507 7.61361 11.6072C7.61361 13.0739 8.20171 14.403 9.15472 15.3713C6.63057 16.7126 4.91053 19.3939 4.91053 22.4789C4.91053 23.1727 5.47238 23.7352 6.16551 23.7352C6.8517 23.7352 7.40927 23.1839 7.42036 22.4997L7.42053 22.4789L7.42124 22.3877C7.46907 19.3837 9.87484 16.9706 12.8267 16.9706C15.7785 16.9706 18.1843 19.3837 18.2321 22.3877L18.2328 22.4789L18.2332 22.5086C18.2489 23.1887 18.8046 23.7352 19.4879 23.7352C20.181 23.7352 20.7429 23.1727 20.7429 22.4789C20.7429 19.4704 19.1071 16.8458 16.6849 15.4733C17.6986 14.4976 18.3294 13.1261 18.3294 11.6072C18.3294 8.64503 15.9306 6.24379 12.9715 6.24379ZM23.0704 20.1596C22.6977 20.1596 22.3945 20.4515 22.3843 20.8154L22.384 20.8343V21.7113L22.3843 21.7444C22.4021 22.8358 23.2988 23.7172 24.4091 23.7349L24.4431 23.7352H32.1992L32.2329 23.7349C33.3432 23.7174 34.24 22.8361 34.258 21.7447L34.2583 21.7113V20.8444L34.2582 20.8312C34.251 20.4647 33.9465 20.1697 33.5719 20.1697C33.1993 20.1697 32.896 20.4616 32.8858 20.8255L32.8856 20.8444V21.7113L32.8854 21.7246C32.8783 22.0848 32.584 22.3758 32.2184 22.3857L32.1992 22.3859H24.4431L24.4295 22.3858C24.0631 22.3788 23.7671 22.0896 23.757 21.7302L23.7568 21.7113V20.8342L23.7566 20.8211C23.7495 20.4546 23.445 20.1596 23.0704 20.1596ZM33.5719 17.4537H23.0703L23.0512 17.454C22.6809 17.464 22.384 17.763 22.384 18.1302C22.384 18.5038 22.6913 18.8067 23.0703 18.8067H33.5719L33.5911 18.8064C33.9613 18.7964 34.2582 18.4975 34.2582 18.1302C34.2582 17.7566 33.951 17.4537 33.5719 17.4537ZM32.1992 12.5252H24.4431L24.4091 12.5255C23.2875 12.5434 22.384 13.4426 22.384 14.5491V15.4262L22.3842 15.4451C22.3944 15.8089 22.6977 16.1008 23.0704 16.1008C23.4494 16.1008 23.7567 15.7988 23.7567 15.4262V14.5491L23.757 14.5302C23.7672 14.1664 24.0705 13.8745 24.4431 13.8745H32.1991L32.2183 13.8748C32.5885 13.8848 32.8855 14.1829 32.8855 14.5492V15.416L32.8858 15.4349C32.8959 15.7987 33.1992 16.0906 33.5719 16.0906C33.9509 16.0906 34.2582 15.7886 34.2582 15.416V14.5491L34.258 14.5156C34.2398 13.4133 33.325 12.5252 32.1991 12.5252L32.1992 12.5252ZM12.9715 8.75635C14.5443 8.75635 15.8194 10.0327 15.8194 11.6072C15.8194 13.1816 14.5443 14.458 12.9715 14.458C11.3987 14.458 10.1236 13.1816 10.1236 11.6072C10.1236 10.0327 11.3987 8.75635 12.9715 8.75635ZM33.5719 7.69336H23.0703L23.0512 7.69365C22.6809 7.70583 22.384 8.06881 22.384 8.51477C22.384 8.96841 22.6913 9.33618 23.0703 9.33618H33.5719L33.5911 9.33588C33.9613 9.32371 34.2582 8.96072 34.2582 8.51477C34.2582 8.06113 33.951 7.69336 33.5719 7.69336Z" fill="#D9D9D9"/>
</svg>